<?xml version="1.0" encoding="utf-8"?>
<!-- Generator: Adobe Illustrator 18.1.0, SVG Export Plug-In . SVG Version: 6.00 Build 0)  -->
<!DOCTYPE svg PUBLIC "-//W3C//DTD SVG 1.1//EN" "http://www.w3.org/Graphics/SVG/1.1/DTD/svg11.dtd">
<svg version="1.1" id="Layer_1" xmlns="http://www.w3.org/2000/svg" xmlns:xlink="http://www.w3.org/1999/xlink" x="0px" y="0px"
	 viewBox="0 0 198 198" enable-background="new 0 0 198 198" xml:space="preserve">
<g>
	<path fill="#2E3338" d="M143.7,110.7L143.7,110.7c-3.5-2.3-7.3-3.7-12-3.8c-4.7,0-10-0.7-14.7-2.5c-9.6-3.5-17.8-10.7-22.4-20.7
		c-1.2-2.6-2.1-5.4-2.7-8.2c-0.2-0.7-0.9-7.7-0.9-8.5c0-0.8-0.2-3.4-0.6-5.2c-0.4-1.7-0.9-3.3-1.6-4.9c-2.8-6-7.7-10.3-13.4-12.4
		c-5.8-2.1-12.3-2.1-18.3,0.7c-6,2.8-10.3,7.7-12.4,13.4c-2.1,5.8-2.1,12.3,0.7,18.3c2,4.2,5.1,7.7,8.8,10.1
		C58,89.7,62.5,91,67.1,91c7.8,0,15.2,2.3,21.5,6.3c6.3,4,11.4,9.8,14.7,16.9c2.6,5.7,3.7,13.8,3.7,17.4c0,3.6,0.2,2.9,0.6,4.4
		c0.4,1.7,0.9,3.3,1.6,4.9c2.8,6,7.7,10.3,13.4,12.4c5.8,2.1,12.3,2.1,18.3-0.7c6-2.8,10.3-7.7,12.4-13.4c2.1-5.8,2.1-12.3-0.7-18.3
		C150.6,116.6,147.5,113.1,143.7,110.7z"/>
	<path fill="#2E3338" d="M0,0v198h198V0H0z M167,114.2c4.6,10,4.7,20.9,1.2,30.4c-3.5,9.6-10.7,17.8-20.7,22.4
		c-10,4.6-20.9,4.7-30.4,1.2c-7.1-2.6-13.4-7.2-18.1-13.5c-3.8,5.1-9,9.4-15.2,12.3c-10,4.6-20.9,4.7-30.4,1.2
		c-9.6-3.5-17.8-10.7-22.4-20.7c-3.5-7.6-4.4-15.9-3-23.7c1.4-7.9,5.2-15.3,11.1-21.2l11.2,11.3c-3.6,3.5-5.8,8-6.7,12.7
		c-0.9,4.7-0.3,9.7,1.8,14.3c2.8,6,7.7,10.3,13.4,12.4c5.8,2.1,12.3,2.1,18.3-0.7c6-2.8,10.3-7.7,12.4-13.4
		c2.1-5.8,2.1-12.3-0.7-18.3c-2-4.2-5.1-7.7-8.8-10.1c-3.8-2.4-8.2-3.8-12.9-3.8c-7.8,0-15.2-2.3-21.5-6.3
		c-6.3-4-11.4-9.8-14.7-16.9c-4.6-10-4.7-20.9-1.2-30.4c3.5-9.6,10.7-17.8,20.7-22.4c10-4.6,20.9-4.7,30.4-1.2
		c9.6,3.5,17.8,10.7,22.4,20.7c1.2,2.6,2.1,5.4,2.7,8.2c0.6,2.7,0.9,7,0.9,8.5c0,1.5,0.5,4.8,0.6,5.1c0.4,1.7,0.9,3.3,1.6,4.9
		c2.8,6,7.7,10.3,13.4,12.4c5.8,2.1,12.3,2.1,18.3-0.7c6-2.8,10.3-7.7,12.4-13.4c2.1-5.8,2.1-12.3-0.7-18.3
		c-2.8-6-7.7-10.3-13.4-12.4c-5.8-2.1-12.3-2.1-18.3,0.7c-1.3,0.6-2.6,1.3-3.8,2.2c-1.2,0.8-2.3,1.8-3.3,2.8l-11.3-11.1
		c1.7-1.7,3.5-3.3,5.5-4.7c2-1.4,4.1-2.6,6.2-3.6c10-4.6,20.9-4.7,30.4-1.2c9.6,3.5,17.8,10.7,22.4,20.7c4.6,10,4.7,20.9,1.2,30.4
		C165.6,88,161,94.3,154.7,99C159.9,102.9,164.2,108.1,167,114.2z"/>
</g>
</svg>
